# xmcd
#
# Track frame offsets:
# 150
# 13444
# 26776
# 41109
# 54055
# 67705
# 79372
# 94736
# 107966
# 121383
# 135280
# 148905
# 162112
# 178117
# 189142
# 203025
# 216325
# 229802
# 243299
# 261237
# 274783
# 288480
# 301483
# 315038
# 328861
#
# Disc length: 4557 seconds
#
#
# Revision: 0
# Processed by: cddbd v1.5.2PL0 Copyright (c) Steve Scherf et al.
# Submitted via: FreeRIP 2.945 
#
DISCID=6911cb19
DTITLE=Murphy-P2001 - Wild-Angel1
DYEAR=2001
DGENRE=Jungle
TTITLE0=WA 101
TTITLE1=WA 102
TTITLE2=WA 103
TTITLE3=WA 104
TTITLE4=WA 105
TTITLE5=WA 106
TTITLE6=WA 107
TTITLE7=WA 108
TTITLE8=WA 109
TTITLE9=WA 110
TTITLE10=WA 111
TTITLE11=WA 112
TTITLE12=WA 113
TTITLE13=WA 114
TTITLE14=WA 115
TTITLE15=WA 116
TTITLE16=WA 117
TTITLE17=WA 118
TTITLE18=WA 119
TTITLE19=WA 120
TTITLE20=WA 121
TTITLE21=WA 122
TTITLE22=WA 123
TTITLE23=WA 124
TTITLE24=WA 125
EXTD=Wild Angel by Pat (Patrice) Murphy 9 CDs\nread by Bernadette Dunne Blackstone Audio
EXTT0=
EXTT1=
EXTT2=
EXTT3=
EXTT4=
EXTT5=
EXTT6=
EXTT7=
EXTT8=
EXTT9=
EXTT10=
EXTT11=
EXTT12=
EXTT13=
EXTT14=
EXTT15=
EXTT16=
EXTT17=
EXTT18=
EXTT19=
EXTT20=
EXTT21=
EXTT22=
EXTT23=
EXTT24=
PLAYORDER=
